<svg width="170" height="46" viewBox="0 0 170 46" fill="none" xmlns="http://www.w3.org/2000/svg">
<path d="M2.08573 17.6875H0V3.57043H2.08573V17.6875ZM2.30461 10.1007C4.0749 8.05761 5.98682 5.80448 7.5125 3.57043H9.91366C8.34936 5.80448 6.59838 8.0958 4.85383 10.1389L10.7892 17.6875H8.25924L2.30461 10.1007Z" fill="#776D61"/>
<path d="M18.4814 9.9307C19.9298 10.3062 21.0113 11.6365 21.0113 13.4568C21.0113 15.99 19.4084 17.7721 15.5395 17.7721C14.6447 17.7721 12.8808 17.6385 11.5547 17.4157V4.18965C12.8937 3.64228 14.3485 3.25403 15.6103 3.25403C18.3269 3.25403 20.3354 4.58427 20.3354 6.97107C20.3354 8.35859 19.5178 9.50425 18.4749 9.93706L18.4814 9.9307ZM15.4236 9.33241C16.9106 9.33241 18.1788 8.46679 18.1788 7.04108C18.1788 5.61537 16.9493 4.86432 15.6489 4.86432C14.8507 4.86432 14.0846 5.06799 13.6404 5.22075V9.33241H15.43H15.4236ZM18.8483 13.4059C18.8483 11.6619 17.3033 10.9109 15.7776 10.9109H13.6404V15.9963C14.3292 16.0918 15.076 16.1491 15.8163 16.1491C17.5479 16.1491 18.8483 15.4171 18.8483 13.4059Z" fill="#776D61"/>
<path d="M28.5621 17.6914H26.457V3.57434H28.5621V17.6914Z" fill="#776D61"/>
<path d="M30.8105 17.6914V8.34153C32.1109 7.83235 34.1387 7.21497 35.6644 7.21497C38.1557 7.21497 39.3337 8.49429 39.3337 10.6329V17.6914H37.3252V10.6901C37.3252 9.11167 36.5785 8.77434 35.4262 8.77434C34.6794 8.77434 33.5465 8.99711 32.819 9.18805V17.6914H30.8105Z" fill="#776D61"/>
<path d="M41.3418 17.6914V8.34153C42.6422 7.83235 44.67 7.21497 46.1956 7.21497C48.6869 7.21497 49.865 8.49429 49.865 10.6329V17.6914H47.8565V10.6901C47.8565 9.11167 47.1097 8.77434 45.9574 8.77434C45.2107 8.77434 44.0777 8.99711 43.3503 9.18805V17.6914H41.3418Z" fill="#776D61"/>
<path d="M61.3487 12.6187C61.3487 16.1448 59.2823 18.0415 56.3404 18.0415C53.3985 18.0415 51.332 16.1448 51.332 12.6187C51.332 9.09258 53.4178 7.21497 56.3404 7.21497C59.263 7.21497 61.3487 9.09258 61.3487 12.6187ZM59.3209 12.6187C59.3209 10.3083 58.2587 8.72979 56.3404 8.72979C54.422 8.72979 53.3598 10.3083 53.3598 12.6187C53.3598 14.9291 54.3254 16.5267 56.3404 16.5267C58.3553 16.5267 59.3209 14.9291 59.3209 12.6187Z" fill="#776D61"/>
<path d="M65.5581 17.69C64.1998 15.2141 62.6162 10.3705 61.7793 7.5509H63.8071C64.586 10.536 65.6289 13.4065 66.5237 15.6215C67.6245 13.9475 68.6802 10.6251 69.0343 7.5509H70.8754C70.5213 10.816 69.3111 15.0995 67.3026 17.69H65.5516H65.5581Z" fill="#776D61"/>
<path d="M77.8029 10.8556C77.8029 9.5763 77.1141 8.75525 75.6464 8.75525C74.4554 8.75525 73.6958 8.86981 72.7624 8.93982L72.6143 7.64777C73.6186 7.425 74.9189 7.21497 75.7944 7.21497C78.3823 7.21497 79.7985 8.39882 79.7985 11.1039V16.9595C78.569 17.4496 76.7278 17.9906 75.2022 17.9906C72.8589 17.9906 71.3848 16.5458 71.3848 14.4772C71.3848 12.4086 72.8525 10.9638 75.2022 10.9638C76.0584 10.9638 77.024 11.1866 77.8093 11.473V10.8556H77.8029ZM77.7836 12.886C76.9853 12.6823 76.0905 12.4914 75.3631 12.4914C74.2108 12.4914 73.3932 13.2806 73.3932 14.4836C73.3932 15.6865 74.1915 16.4757 75.3631 16.4757C76.2 16.4757 76.9853 16.3612 77.7836 16.1575V12.886Z" fill="#776D61"/>
<path d="M84.6328 4.69789V7.74026H87.1434V9.28054H84.6328V14.8179C84.6328 15.9445 85.2251 16.5046 86.1006 16.5046C86.5126 16.5046 86.8795 16.4282 87.2915 16.3709L87.549 17.7012C87.0276 17.8921 86.3774 18.0385 85.7787 18.0385C84.0277 18.0385 82.5986 16.8546 82.5986 14.8816V9.26781H81.1309V7.72753H82.5986V4.8952L84.6264 4.69153L84.6328 4.69789Z" fill="#776D61"/>
<path d="M88.6308 4.48856C88.6308 3.62295 89.2617 3.08194 90.0277 3.08194C90.7938 3.08194 91.4247 3.62931 91.4247 4.48856C91.4247 5.34781 90.7938 5.89518 90.0277 5.89518C89.2617 5.89518 88.6308 5.34781 88.6308 4.48856ZM88.9849 17.6891V7.55002H91.032V17.6891H88.9849Z" fill="#776D61"/>
<path d="M102.755 12.6187C102.755 16.1448 100.689 18.0415 97.7466 18.0415C94.8047 18.0415 92.7383 16.1448 92.7383 12.6187C92.7383 9.09258 94.824 7.21497 97.7466 7.21497C100.669 7.21497 102.755 9.09258 102.755 12.6187ZM100.727 12.6187C100.727 10.3083 99.665 8.72979 97.7531 8.72979C95.8411 8.72979 94.7725 10.3083 94.7725 12.6187C94.7725 14.9291 95.7381 16.5267 97.7531 16.5267C99.768 16.5267 100.727 14.9291 100.727 12.6187Z" fill="#776D61"/>
<path d="M104.19 17.6914V8.34153C105.49 7.83235 107.518 7.21497 109.044 7.21497C111.535 7.21497 112.707 8.49429 112.707 10.6329V17.6914H110.698V10.6901C110.698 9.11167 109.952 8.77434 108.799 8.77434C108.052 8.77434 106.92 8.99711 106.192 9.18805V17.6914H104.184H104.19Z" fill="#776D61"/>
<path d="M136.706 2.00491C136.706 0.808329 137.497 0 138.733 0C139.969 0 140.768 0.808329 140.768 2.00491V11.2466C140.768 13.6461 142.126 14.7218 144.456 14.7218C146.787 14.7218 148.145 13.6461 148.145 11.2466V2.00491C148.145 0.808329 148.937 0 150.173 0C151.409 0 152.201 0.808329 152.201 2.00491V10.9283C152.201 15.772 149.181 17.9551 144.45 17.9551C139.718 17.9551 136.699 15.7783 136.699 10.9283V2.00491H136.706Z" fill="#776D61"/>
<path d="M155.096 2.41514C155.096 0.62663 156.036 0.0665283 157.472 0.0665283H162.866C165.834 0.0665283 169.375 0.728467 169.375 4.61735C169.375 6.11308 168.557 7.53243 166.87 8.188V8.23892C168.75 8.72901 169.993 10.0465 169.993 12.4715C169.993 16.1695 166.948 17.6843 163.433 17.6843H157.465C156.03 17.6843 155.09 17.1242 155.09 15.3357V2.41514H155.096ZM159.158 7.30966H162.499C164.405 7.30966 165.325 6.55225 165.325 5.15836C165.325 3.47169 163.89 3.00706 162.377 3.00706H159.158V7.31603V7.30966ZM162.57 14.6037C164.154 14.6037 165.937 14.2855 165.937 12.2551C165.937 10.2247 164.057 9.85558 162.074 9.85558H159.152V14.6037H162.57Z" fill="#776D61"/>
<path d="M122.376 2.00491C122.376 0.808329 121.585 0 120.342 0C119.1 0 118.314 0.808329 118.314 2.00491V15.9438C118.314 17.1404 119.106 17.9487 120.342 17.9487C121.578 17.9487 122.376 17.1404 122.376 15.9438V2.00491Z" fill="#FEBE0E"/>
<path d="M131.776 0C130.54 0 129.748 0.808329 129.748 2.00491V15.9438C129.748 17.1404 130.54 17.9487 131.776 17.9487C133.012 17.9487 133.804 17.1404 133.804 15.9438V2.00491C133.804 0.808329 133.012 0 131.776 0Z" fill="#58C5C7"/>
<path d="M122.518 10.4661L131.775 6.58357V3.29297L121.301 7.61466C120.715 7.85653 120.342 8.41663 120.342 9.04038C120.342 10.1542 121.488 10.8989 122.518 10.4661Z" fill="#58C5C7"/>
<path d="M120.342 14.671L130.841 10.2665C131.408 10.031 131.775 9.4773 131.775 8.87265C131.775 7.78427 130.655 7.05232 129.644 7.47876L120.342 11.3804V14.671Z" fill="#FEBE0E"/>
<path d="M60.3962 38.1079L60.216 37.9933C59.6109 37.3951 58.7676 37.1405 57.6474 37.2041C56.7076 37.2614 55.9673 37.6306 55.4008 37.9679C55.4008 37.9615 55.4008 37.9488 55.4008 37.9424C55.4008 37.6496 55.433 37.3378 55.4651 37.0323C55.4973 36.7204 55.5295 36.4085 55.5295 36.1094C55.5295 35.8102 55.4973 35.5174 55.3879 35.2692C55.3621 35.2056 55.3042 35.1674 55.227 35.1674C54.9244 35.1737 54.3322 35.3774 54.1905 35.5047L54.1133 35.6766C54.1133 36.0075 54.036 36.9304 53.9588 37.045L53.9202 37.1596C53.7914 38.4834 53.7914 39.6418 53.9073 40.6411C53.9202 40.7429 54.1133 40.8893 54.2678 40.9466C54.4352 41.0039 54.9502 40.8702 55.2463 40.762L55.3557 40.7429C55.4523 40.7302 55.5038 40.6538 55.5038 40.552L55.5102 40.2656C55.7226 39.4063 56.5917 38.3752 57.6153 38.2225C58.1946 38.1334 58.6517 38.2798 59.0122 38.668C59.0637 38.738 59.1667 39.3554 58.7869 40.0683C58.5036 40.5965 57.9307 41.0421 57.1839 41.3158C56.4758 41.5831 55.6969 41.6913 54.7313 41.6595C54.6927 41.634 53.83 41.0548 53.83 41.0548C53.064 40.5265 52.1177 39.8646 51.2551 39.54C51.107 39.4827 50.8366 39.2599 50.6693 39.1263L50.5791 39.0563C50.0834 38.6616 49.1371 38.0379 48.384 37.5414C48.384 37.5414 48.0428 37.3123 47.9784 37.2678C47.9784 37.2423 47.9784 37.185 47.9784 37.185C47.9977 37.1596 48.4741 36.8795 48.4741 36.8795C49.1436 36.4913 49.4461 36.3067 49.5169 36.2048C49.5041 36.2176 49.6071 36.1539 49.6071 36.1539L51.2615 35.231C52.8515 34.3718 54.6476 33.3916 55.5875 32.4242L55.6325 32.2778L55.6518 32.1441C55.7162 31.9404 55.7162 31.7813 55.6647 31.5967C55.6518 31.5458 55.6003 31.4822 55.536 31.4694C54.7957 31.3994 53.8494 31.8322 52.9803 32.6342C52.7872 32.8124 52.6198 32.9015 52.446 32.997L52.3108 33.0734C51.3581 33.608 49.208 34.9319 48.0814 35.6384C48.1522 34.4418 48.3775 32.7424 48.6543 31.323L48.6221 31.1512L48.5063 30.9348L48.4161 30.782H48.3904C48.1651 30.6611 47.9848 30.7057 47.8497 30.7438L47.6243 30.8266L47.3218 30.9348C47.2638 30.9475 47.2188 30.9857 47.1995 31.0366C46.6652 32.3223 46.2145 34.4354 46.1051 36.1221C45.0301 35.4474 44.0387 34.9637 43.5494 34.7282H43.5366L43.4786 34.7091C43.3048 34.69 43.0924 34.5564 42.8864 34.4354C42.8671 34.4227 42.4744 34.1745 42.4744 34.1745L41.85 33.7799L41.6826 33.7417C41.4122 33.7862 40.8972 34.1299 40.7491 34.3654C40.7298 34.3972 40.7234 34.4291 40.7234 34.4673C40.7234 34.5182 40.7363 34.5627 40.7491 34.6136L40.7749 34.7409L40.8071 34.8173C41.1096 35.1228 41.8628 35.6256 42.6031 36.0203L43.4593 36.4722L44.7726 37.1786L44.9979 37.3569L45.1524 37.446C45.1524 37.446 45.1717 37.4587 45.1781 37.4651C44.8305 37.6942 42.7898 39.0435 42.7898 39.0435L41.5345 39.8646C41.4186 39.9473 40.923 40.1637 40.8135 40.2083C40.5432 40.3165 40.3372 40.4883 40.247 40.6666L40.2148 40.7366L40.247 40.7811L40.3436 40.8511L40.4723 40.9339L40.614 41.0294L40.7427 41.0484C40.9616 41.0548 41.2899 40.9339 41.9015 40.6666C42.4615 40.4183 43.9872 39.5082 44.6438 39.1199L44.9206 38.9544C45.0365 38.9608 45.1588 38.8653 45.2747 38.7826C45.4034 38.6807 45.6867 38.5089 45.8605 38.4325C45.8605 38.4325 45.9635 38.3752 46.06 38.3243C46.06 38.3498 46.06 38.4007 46.06 38.4007C46.0922 40.3738 46.2017 41.8059 46.4205 42.9133V42.9324L46.4463 42.977C46.5557 43.1297 46.678 43.6007 46.7875 44.0144L47.0385 44.8355L47.1093 44.9119C47.251 45.0073 47.6823 45.1728 47.972 45.1346H48.0428L48.0878 45.0264C48.1136 44.9055 48.12 44.7846 48.12 44.6509C48.12 44.4982 48.1071 44.3327 48.0943 44.129L48.075 43.8299C47.9848 42.4551 47.8947 40.4629 47.8947 39.1454V39.0372C48.1329 39.1836 49.1693 39.8264 49.1693 39.8264C50.9332 40.9593 53.5918 42.6651 55.2012 43.117C55.2849 43.1425 55.375 43.117 55.433 43.0661L55.6776 42.907L55.7226 42.8879C55.8128 42.8433 55.8771 42.6906 55.89 42.5251C57.2483 42.4551 59.1345 41.9395 60.1452 40.6856C60.5379 40.1956 60.7117 39.6036 60.7117 39.0881C60.7117 38.668 60.5958 38.3052 60.3834 38.1079" fill="#FCAF16"/>
<path d="M95.678 41.4128H89.762V39.3507H95.678V41.4128ZM96.914 38.2814H88.5195V42.4885H96.914V38.2814Z" fill="#776C60"/>
<path d="M96.8622 36.0085V32.7306H88.5772V33.7871H95.6133V36.0148H87.6309V37.0777H97.802V36.0085H96.8622Z" fill="#776C60"/>
<path d="M108.798 37.7901V36.7272H98.6268V37.7901H100.951V38.9422C100.05 39.3177 99.4701 39.916 99.4701 40.7498C99.4701 42.2582 101.363 43.0156 103.7 43.0156C106.036 43.0156 107.929 42.2582 107.929 40.7498C107.929 39.9224 107.362 39.3241 106.474 38.9549V37.7901H108.798ZM102.206 37.7901H105.251V38.6112C104.775 38.5285 104.26 38.4903 103.719 38.4903C103.178 38.4903 102.676 38.5285 102.212 38.6112V37.7965L102.206 37.7901ZM106.635 40.7561C106.635 41.5899 105.322 41.9655 103.712 41.9655C102.103 41.9655 100.79 41.5963 100.79 40.7561C100.79 39.916 102.097 39.5532 103.712 39.5532C105.328 39.5532 106.635 39.9287 106.635 40.7561ZM103.719 36.269C105.792 36.269 107.478 35.5688 107.478 34.1813C107.478 32.7938 105.798 32.0937 103.719 32.0937C101.64 32.0937 99.9594 32.7811 99.9594 34.1813C99.9594 35.5816 101.64 36.269 103.719 36.269ZM103.712 33.1375C105.064 33.1375 106.165 33.4621 106.165 34.1813C106.165 34.9005 105.064 35.2251 103.712 35.2251C102.361 35.2251 101.26 34.9005 101.26 34.1813C101.26 33.4621 102.354 33.1375 103.712 33.1375Z" fill="#776C60"/>
<path d="M117.655 40.5593V32.9025H109.769V33.959H116.406V40.5593H109.074V41.6159H118.589V40.5593H117.655Z" fill="#776C60"/>
<path d="M119.592 37.4332V38.4834H124.092V39.3553H125.36V38.4834H129.757V37.4332H119.586H119.592ZM121.652 39.6672V38.948H120.436V42.4741H128.92V38.948H127.697V39.6672H121.652ZM127.691 41.4302H121.646V40.6919H127.691V41.4302ZM128.862 35.8865H121.672V35.3201H128.837V32.7423H120.455V33.7798H127.62V34.3208H120.455V36.9303H128.856V35.8929L128.862 35.8865Z" fill="#776C60"/>
<path d="M76.1348 32.7252H81.0144C83.3383 32.7252 84.5485 33.489 84.5485 35.1502C84.5485 36.3341 83.7116 37.1551 82.598 37.3715V37.4097C84.1944 37.5943 84.9476 38.6318 84.9476 39.8029C84.9476 41.2668 83.8597 42.5334 81.1688 42.5334H76.1348V32.7189V32.7252ZM77.7184 36.856H80.9371C82.1345 36.856 83.0164 36.4105 83.0164 35.3603C83.0164 34.4501 82.5786 33.8391 80.7569 33.8391H77.7184V36.856ZM77.7184 41.4259H80.8405C82.7782 41.4259 83.2932 40.6812 83.2932 39.7265C83.2932 38.5999 82.5014 37.9762 80.7569 37.9762H77.7184V41.4259Z" fill="#776C60"/>
<path d="M65.3965 32.7228H66.9865V37.1145L72.3167 32.7228H74.5634L68.9242 37.1527L75.0333 42.5373H72.7867L66.9865 37.28V42.5373H65.3965V32.7228Z" fill="#776C60"/>
</svg>
